<svg width="16" height="16" viewBox="0 0 16 16" xmlns="http://www.w3.org/2000/svg" fill="currentColor">
  <path d="M0 2.4C0 1.76348 0.252856 1.15303 0.702944 0.702944C1.15303 0.252856 1.76348 0 2.4 0L13.6 0C14.2365 0 14.847 0.252856 15.2971 0.702944C15.7471 1.15303 16 1.76348 16 2.4V13.6C16 14.2365 15.7471 14.847 15.2971 15.2971C14.847 15.7471 14.2365 16 13.6 16H2.4C1.76348 16 1.15303 15.7471 0.702944 15.2971C0.252856 14.847 0 14.2365 0 13.6L0 2.4ZM1.6 2.4V13.6C1.6 13.8122 1.68429 14.0157 1.83431 14.1657C1.9086 14.24 1.99679 14.2989 2.09385 14.3391C2.19091 14.3793 2.29494 14.4 2.4 14.4H13.6C13.8122 14.4 14.0157 14.3157 14.1657 14.1657C14.3157 14.0157 14.4 13.8122 14.4 13.6V2.4C14.4 2.18783 14.3157 1.98434 14.1657 1.83431C14.0157 1.68429 13.8122 1.6 13.6 1.6H2.4C2.18783 1.6 1.98434 1.68429 1.83431 1.83431C1.68429 1.98434 1.6 2.18783 1.6 2.4ZM2.8 14.4L14.4 2.8V2.4092C14.4 2.4092 14.4 2.0668 14.164 1.8316C13.928 1.596 13.6012 1.6 13.6012 1.6H13.2L1.6 13.2V13.6C1.6 13.6 1.598 13.8936 1.808 14.1468C2.0172 14.4 2.4 14.4 2.4 14.4H2.8ZM1.6 8.8L8.8 1.6H6.8L1.6 6.8V8.8ZM14.4 7.2L7.2 14.4H9.2L14.4 9.2V7.2Z"/>
</svg>
