<svg width="16" height="16" viewBox="0 0 16 16" xmlns="http://www.w3.org/2000/svg" fill="currentColor">
  <path d="M5.91718 2.80007L3.4633 5.28676L13.3853 16L16 12.9256L5.91718 2.80007ZM13.3514 14.3426L4.98844 5.31221L5.92041 4.36811L14.5044 12.9878L13.3514 14.3426ZM2.91261 4.55818L5.27185 2.18801L4.27373 1.15963C3.66227 0.531165 2.61092 0.536256 2.00699 1.17037C1.70782 1.48607 1.53818 1.91252 1.53446 2.35825C1.53074 2.80399 1.69324 3.2335 1.98709 3.55468L2.91261 4.55818ZM6.45335 0H7.52891V1.13134H6.45335V0ZM4.84001 10.7477H5.91557V11.8791H4.84001V10.7477ZM0 5.09104H1.07556V6.22238H0V5.09104ZM3.37241 7.56924L2.35601 7.20042L2.07852 8.04497L1.25894 7.77741L0.940575 8.85728L1.72788 9.11465L1.4676 9.90886L2.484 10.2777L2.75558 9.45066L3.52568 9.70182L3.84458 8.62139L3.10675 8.38041L3.37241 7.56924ZM10.086 3.77359L11.1164 4.09829L11.3638 3.22941L12.1301 3.47944L12.449 2.39958L11.673 2.14559L11.9091 1.31745L10.8787 0.992752L10.6453 1.81015L9.86394 1.55503L9.5445 2.63489L10.3366 2.89397L10.086 3.77359Z" />
</svg>
