<svg width="24" height="24" viewBox="0 0 24 24"><path fill-rule="evenodd" clip-rule="evenodd" d="M4 7.5C4 5.567 5.567 4 7.5 4H16.5C18.433 4 20 5.567 20 7.5V16.5C20 18.433 18.433 20 16.5 20H7.5C5.567 20 4 18.433 4 16.5V7.5ZM7.5 5C6.11929 5 5 6.11929 5 7.5V12.9864C6.3817 12.0363 7.57797 11.6194 8.77733 11.7898C10.1706 11.9878 11.426 12.9653 12.8711 14.3843C14.2245 15.7133 15.4143 15.9891 16.4241 15.8658C17.3752 15.7496 18.2315 15.2744 19 14.7876V7.5C19 6.11929 17.8807 5 16.5 5H7.5ZM19 15.9586C18.3035 16.3613 17.4735 16.745 16.5453 16.8584C15.1938 17.0235 13.711 16.6105 12.1705 15.0978C10.7216 13.6751 9.67366 12.9272 8.63663 12.7799C7.66646 12.642 6.57431 13.0171 5 14.223V16.5C5 17.8807 6.11929 19 7.5 19H16.5C17.8807 19 19 17.8807 19 16.5V15.9586ZM14.5 8C13.6716 8 13 8.67157 13 9.5C13 10.3284 13.6716 11 14.5 11C15.3284 11 16 10.3284 16 9.5C16 8.67157 15.3284 8 14.5 8ZM12 9.5C12 8.11929 13.1193 7 14.5 7C15.8807 7 17 8.11929 17 9.5C17 10.8807 15.8807 12 14.5 12C13.1193 12 12 10.8807 12 9.5Z"></path></svg>