<svg width="24" height="24" viewBox="0 0 24 24"><path fill-rule="evenodd" clip-rule="evenodd" d="M10 9C10 6.23858 12.2386 4 15 4C17.7614 4 20 6.23858 20 9C20 11.7614 17.7614 14 15 14C12.2386 14 10 11.7614 10 9ZM15 3C11.6863 3 9 5.68629 9 9C9 12.3137 11.6863 15 15 15C18.3137 15 21 12.3137 21 9C21 5.68629 18.3137 3 15 3ZM5 10C5 8.89543 5.89543 8 7 8H7.5C7.77614 8 8 7.77614 8 7.5C8 7.22386 7.77614 7 7.5 7H7C5.34315 7 4 8.34315 4 10V17C4 18.6569 5.34315 20 7 20H14C15.6569 20 17 18.6569 17 17V16.5C17 16.2239 16.7761 16 16.5 16C16.2239 16 16 16.2239 16 16.5V17C16 18.1046 15.1046 19 14 19H7C5.89543 19 5 18.1046 5 17V10Z"></path></svg>