<svg width="16" height="16" viewBox="0 0 16 16" xmlns="http://www.w3.org/2000/svg" fill="currentColor">
  <path d="M0 4.55638H15.8598L14.8003 5.71426V0L15.8598 1.15791H0L1.05947 0V5.71428L0 4.5564V4.55638ZM0 5.71426V0H15.8598V5.71428H0V5.71426ZM15.4703 8.1579H16V7H6.46485V8.1579H6.9946H15.4703ZM15.4703 10.6842H16V9.52629H6.46485V10.6842H6.9946H15.4703ZM15.4703 13.2105H16V12.0526H6.46485V13.2105H6.9946H15.4703ZM15.4703 15.7367H16V14.5789H6.46485V15.7368H6.9946L15.4703 15.7367ZM0 14.8421H5.28659L4.22715 16V6.85711L5.28659 8.01499H0L1.05947 6.85711V16L0 14.8421ZM0 16V6.85711H5.28659V16H0Z"/>
</svg>
