<svg width="24" height="24" viewBox="0 0 24 24"><path fill-rule="evenodd" clip-rule="evenodd" d="M7.5 4C5.567 4 4 5.567 4 7.5V16.5C4 18.433 5.567 20 7.5 20H16.5C18.433 20 20 18.433 20 16.5V7.5C20 5.567 18.433 4 16.5 4H7.5ZM5 7.5C5 6.11929 6.11929 5 7.5 5H16.5C17.8807 5 19 6.11929 19 7.5V16.5C19 17.8807 17.8807 19 16.5 19H7.5C6.11929 19 5 17.8807 5 16.5V7.5ZM9.5 9C9.22386 9 9 9.22386 9 9.5C9 9.77614 9.22386 10 9.5 10H11.5V14.5C11.5 14.7761 11.7239 15 12 15C12.2761 15 12.5 14.7761 12.5 14.5V10H14.5C14.7761 10 15 9.77614 15 9.5C15 9.22386 14.7761 9 14.5 9H9.5Z"></path></svg>