<svg xmlns="http://www.w3.org/2000/svg" fill="none" width="48" height="48">
  <defs>
    <clipPath id="a">
      <rect width="48" height="48" rx="0" />
    </clipPath>
  </defs>
  <g>
    <rect x="6" y="13" width="36" height="22" rx="3" fill="#0A95FF" opacity=".1" />
    <rect x="24" y="13" width="18" height="22" rx="3" fill="#0A95FF" />
    <path
      d="M11 23.5h10q.05 0 .098.01t.093.028q.046.019.087.046.04.028.076.062.034.035.062.076.027.041.046.087.019.045.028.093.01.049.01.098 0 .05-.01.098t-.028.093q-.019.046-.046.087-.028.04-.062.076-.035.034-.076.062-.041.027-.087.046-.045.019-.093.028-.049.01-.098.01H11q-.05 0-.098-.01t-.093-.028q-.046-.019-.087-.046-.04-.028-.076-.062-.034-.035-.062-.076-.027-.041-.046-.087-.019-.045-.028-.093-.01-.049-.01-.098 0-.05.01-.098t.028-.093q.019-.046.046-.087.028-.04.062-.076.035-.034.076-.062.041-.027.087-.046.045-.019.093-.028.049-.01.098-.01zm.5.5q0 .05-.01.098t-.028.093q-.019.046-.046.087-.028.04-.062.076-.035.034-.076.062-.041.027-.087.046-.045.019-.093.028-.049.01-.098.01-.05 0-.098-.01t-.093-.028q-.046-.019-.087-.046-.04-.028-.076-.062-.034-.035-.062-.076-.027-.041-.046-.087-.019-.045-.028-.093-.01-.049-.01-.098 0-.05.01-.098t.028-.093q.019-.046.046-.087.028-.04.062-.076.035-.034.076-.062.041-.027.087-.046.045-.019.093-.028.049-.01.098-.01.05 0 .098.01t.093.028q.046.019.087.046.04.028.076.062.034.035.062.076.027.041.046.087.019.045.028.093.01.049.01.098zm10 0q0 .05-.01.098t-.028.093q-.019.046-.046.087-.028.04-.062.076-.035.034-.076.062-.041.027-.087.046-.045.019-.093.028-.049.01-.098.01-.05 0-.098-.01t-.093-.028q-.046-.019-.087-.046-.04-.028-.076-.062-.034-.035-.062-.076-.027-.041-.046-.087-.019-.045-.028-.093-.01-.049-.01-.098 0-.05.01-.098t.028-.093q.019-.046.046-.087.028-.04.062-.076.035-.034.076-.062.041-.027.087-.046.045-.019.093-.028.049-.01.098-.01.05 0 .098.01t.093.028q.046.019.087.046.04.028.076.062.034.035.062.076.027.041.046.087.019.045.028.093.01.049.01.098z"
      fill="#0A95FF" />
    <path
      d="M15.354 20.354l-4 4L11 24l.354-.354 4 4q.034.035.062.076.027.041.046.087.019.045.028.093.01.049.01.098 0 .05-.01.098t-.028.093q-.019.046-.046.087-.028.04-.062.076-.035.034-.076.062-.041.027-.087.046-.045.019-.093.028-.049.01-.098.01-.05 0-.098-.01t-.093-.028q-.046-.019-.087-.046-.04-.028-.076-.062l-4-4q-.034-.035-.062-.076-.027-.041-.046-.087-.019-.045-.028-.093-.01-.049-.01-.098 0-.05.01-.098t.028-.093q.019-.046.046-.087.028-.04.062-.076l4-4q.035-.034.076-.062.041-.027.087-.046.045-.019.093-.028.049-.01.098-.01.05 0 .098.01t.093.028q.046.019.087.046.04.028.076.062.034.035.062.076.027.041.046.087.019.045.028.093.01.049.01.098 0 .05-.01.098t-.028.093q-.019.046-.046.087-.028.04-.062.076zM15.5 20q0 .05-.01.098t-.028.093q-.019.046-.046.087-.028.04-.062.076-.035.034-.076.062-.041.027-.087.046-.045.019-.093.028-.049.01-.098.01-.05 0-.098-.01t-.093-.028q-.046-.019-.087-.046-.04-.028-.076-.062-.034-.035-.062-.076-.027-.041-.046-.087-.019-.045-.028-.093-.01-.049-.01-.098 0-.05.01-.098t.028-.093q.019-.046.046-.087.028-.04.062-.076.035-.034.076-.062.041-.027.087-.046.045-.019.093-.028.049-.01.098-.01.05 0 .098.01t.093.028q.046.019.087.046.04.028.076.062.034.035.062.076.027.041.046.087.019.045.028.093.01.049.01.098zm0 8q0 .05-.01.098t-.028.093q-.019.046-.046.087-.028.04-.062.076-.035.034-.076.062-.041.027-.087.046-.045.019-.093.028-.049.01-.098.01-.05 0-.098-.01t-.093-.028q-.046-.019-.087-.046-.04-.028-.076-.062-.034-.035-.062-.076-.027-.041-.046-.087-.019-.045-.028-.093-.01-.049-.01-.098 0-.05.01-.098t.028-.093q.019-.046.046-.087.028-.04.062-.076.035-.034.076-.062.041-.027.087-.046.045-.019.093-.028.049-.01.098-.01.05 0 .098.01t.093.028q.046.019.087.046.04.028.076.062.034.035.062.076.027.041.046.087.019.045.028.093.01.049.01.098z"
      fill="#0A95FF" />
  </g>
</svg>