<svg xmlns="http://www.w3.org/2000/svg" width="14" height="14">
  <g>
    <path
      d="M3.5 5.042h7q.05 0 .098.01.048.009.093.028.046.019.087.046.04.027.076.062.034.035.062.076.027.04.046.086.019.046.028.094.01.048.01.098 0 .049-.01.097-.01.049-.028.094-.019.045-.046.086-.028.041-.062.076-.035.035-.076.062-.041.028-.087.047-.045.018-.093.028-.049.01-.098.01h-7q-.05 0-.098-.01t-.093-.028q-.046-.02-.087-.047-.04-.027-.076-.062-.034-.035-.062-.076-.027-.04-.046-.086-.019-.045-.028-.094Q3 5.591 3 5.542q0-.05.01-.098t.028-.094q.019-.045.046-.086.028-.041.062-.076.035-.035.076-.062.041-.027.087-.046.045-.02.093-.029.049-.01.098-.01zm.5.5q0 .049-.01.097-.01.049-.028.094-.019.045-.046.086-.028.041-.062.076-.035.035-.076.062-.041.028-.087.047-.045.018-.093.028-.049.01-.098.01-.05 0-.098-.01t-.093-.028q-.046-.02-.087-.047-.04-.027-.076-.062-.034-.035-.062-.076-.027-.04-.046-.086-.019-.045-.028-.094Q3 5.591 3 5.542q0-.05.01-.098t.028-.094q.019-.045.046-.086.028-.041.062-.076.035-.035.076-.062.041-.027.087-.046.045-.02.093-.029.049-.01.098-.01.05 0 .098.01t.093.029q.046.019.087.046.04.027.076.062.034.035.062.076.027.04.046.086.019.046.028.094.01.048.01.098zm7 0q0 .049-.01.097-.01.049-.028.094-.019.045-.046.086-.028.041-.062.076-.035.035-.076.062-.041.028-.087.047-.045.018-.093.028-.049.01-.098.01-.05 0-.098-.01t-.093-.028q-.046-.02-.087-.047-.04-.027-.076-.062-.034-.035-.062-.076-.027-.04-.046-.086-.019-.045-.028-.094-.01-.048-.01-.097 0-.05.01-.098t.028-.094q.019-.045.046-.086.028-.041.062-.076.035-.035.076-.062.041-.027.087-.046.045-.02.093-.029.049-.01.098-.01.05 0 .098.01t.093.029q.046.019.087.046.04.027.076.062.034.035.062.076.027.04.046.086.019.046.028.094.01.048.01.098zM1.75 2.125h10.5q.05 0 .098.01t.093.028q.046.019.087.046.04.028.076.062.034.035.062.076.027.041.046.087.019.045.028.093.01.049.01.098 0 .05-.01.098t-.028.093q-.019.046-.046.087-.028.04-.062.076-.035.034-.076.062-.041.027-.087.046-.045.019-.094.028-.048.01-.097.01H1.75q-.05 0-.098-.01t-.093-.028q-.046-.019-.087-.046-.04-.028-.076-.062-.034-.035-.062-.076-.027-.041-.046-.087-.019-.045-.028-.093-.01-.049-.01-.098 0-.05.01-.098t.028-.093q.019-.046.046-.087.028-.04.062-.076.035-.034.076-.062.041-.027.087-.046.045-.019.093-.028.049-.01.098-.01zm.5.5q0 .05-.01.098t-.028.093q-.019.046-.046.087-.028.04-.062.076-.035.034-.076.062-.041.027-.087.046-.045.019-.093.028-.049.01-.098.01-.05 0-.098-.01t-.093-.028q-.046-.019-.087-.046-.04-.028-.076-.062-.034-.035-.062-.076-.027-.041-.046-.087-.019-.045-.028-.093-.01-.049-.01-.098 0-.05.01-.098t.028-.093q.019-.046.046-.087.028-.04.062-.076.035-.034.076-.062.041-.027.087-.046.045-.019.093-.028.049-.01.098-.01.05 0 .098.01t.093.028q.046.019.087.046.04.028.076.062.034.035.062.076.027.041.046.087.019.045.028.093.01.049.01.098zm10.5 0q0 .05-.01.098t-.028.093q-.019.046-.046.087-.028.04-.062.076-.035.034-.076.062-.041.027-.087.046-.045.019-.094.028-.048.01-.097.01-.05 0-.098-.01t-.093-.028q-.046-.019-.087-.046-.04-.028-.076-.062-.034-.035-.062-.076-.027-.041-.046-.087-.019-.045-.028-.093-.01-.049-.01-.098 0-.05.01-.098t.028-.093q.019-.046.046-.087.028-.04.062-.076.035-.034.076-.062.041-.027.087-.046.045-.019.094-.028.048-.01.097-.01.05 0 .098.01t.093.028q.046.019.087.046.04.028.076.062.034.035.062.076.027.041.046.087.019.045.028.093.01.049.01.098zM1.75 7.958h10.5q.05 0 .098.01t.093.028q.046.02.087.047.04.027.076.062.034.035.062.076.027.04.046.086.019.045.028.094.01.048.01.097 0 .05-.01.098t-.028.094q-.019.045-.046.086-.028.041-.062.076-.035.035-.076.062-.041.027-.087.046-.045.02-.094.029-.048.01-.097.01H1.75q-.05 0-.098-.01T1.56 8.92q-.046-.019-.087-.046-.04-.027-.076-.062-.034-.035-.062-.076-.027-.04-.046-.086-.019-.046-.028-.094-.01-.048-.01-.098 0-.049.01-.097.01-.049.028-.094.019-.045.046-.086.028-.041.062-.076.035-.035.076-.062.041-.028.087-.047.045-.018.093-.028.049-.01.098-.01zm.5.5q0 .05-.01.098t-.028.094q-.019.045-.046.086-.028.041-.062.076-.035.035-.076.062-.041.027-.087.046-.045.02-.093.029-.049.01-.098.01-.05 0-.098-.01T1.56 8.92q-.046-.019-.087-.046-.04-.027-.076-.062-.034-.035-.062-.076-.027-.04-.046-.086-.019-.046-.028-.094-.01-.048-.01-.098 0-.049.01-.097.01-.049.028-.094.019-.045.046-.086.028-.041.062-.076.035-.035.076-.062.041-.028.087-.047.045-.018.093-.028.049-.01.098-.01.05 0 .098.01t.093.028q.046.02.087.047.04.027.076.062.034.035.062.076.027.04.046.086.019.045.028.094.01.048.01.097zm10.5 0q0 .05-.01.098t-.028.094q-.019.045-.046.086-.028.041-.062.076-.035.035-.076.062-.041.027-.087.046-.045.02-.094.029-.048.01-.097.01-.05 0-.098-.01t-.093-.029q-.046-.019-.087-.046-.04-.027-.076-.062-.034-.035-.062-.076-.027-.04-.046-.086-.019-.046-.028-.094-.01-.048-.01-.098 0-.049.01-.097.01-.049.028-.094.019-.045.046-.086.028-.041.062-.076.035-.035.076-.062.041-.028.087-.047.045-.018.094-.028.048-.01.097-.01.05 0 .098.01t.093.028q.046.02.087.047.04.027.076.062.034.035.062.076.027.04.046.086.019.045.028.094.01.048.01.097zM3.5 10.875h7q.05 0 .098.01t.093.028q.046.019.087.046.04.028.076.062.034.035.062.076.027.041.046.087.019.045.028.093.01.049.01.098 0 .05-.01.098t-.028.093q-.019.046-.046.087-.028.04-.062.076-.035.034-.076.062-.041.027-.087.046-.045.019-.093.028-.049.01-.098.01h-7q-.05 0-.098-.01t-.093-.028q-.046-.019-.087-.046-.04-.028-.076-.062-.034-.035-.062-.076-.027-.041-.046-.087-.019-.045-.028-.093-.01-.049-.01-.098 0-.05.01-.098t.028-.093q.019-.046.046-.087.028-.04.062-.076.035-.034.076-.062.041-.027.087-.046.045-.019.093-.028.049-.01.098-.01zm.5.5q0 .05-.01.098t-.028.093q-.019.046-.046.087-.028.04-.062.076-.035.034-.076.062-.041.027-.087.046-.045.019-.093.028-.049.01-.098.01-.05 0-.098-.01t-.093-.028q-.046-.019-.087-.046-.04-.028-.076-.062-.034-.035-.062-.076-.027-.041-.046-.087-.019-.045-.028-.093-.01-.049-.01-.098 0-.05.01-.098t.028-.093q.019-.046.046-.087.028-.04.062-.076.035-.034.076-.062.041-.027.087-.046.045-.019.093-.028.049-.01.098-.01.05 0 .098.01t.093.028q.046.019.087.046.04.028.076.062.034.035.062.076.027.041.046.087.019.045.028.093.01.049.01.098zm7 0q0 .05-.01.098t-.028.093q-.019.046-.046.087-.028.04-.062.076-.035.034-.076.062-.041.027-.087.046-.045.019-.093.028-.049.01-.098.01-.05 0-.098-.01t-.093-.028q-.046-.019-.087-.046-.04-.028-.076-.062-.034-.035-.062-.076-.027-.041-.046-.087-.019-.045-.028-.093-.01-.049-.01-.098 0-.05.01-.098t.028-.093q.019-.046.046-.087.028-.04.062-.076.035-.034.076-.062.041-.027.087-.046.045-.019.093-.028.049-.01.098-.01.05 0 .098.01t.093.028q.046.019.087.046.04.028.076.062.034.035.062.076.027.041.046.087.019.045.028.093.01.049.01.098z"
      fill="currentColor" />
  </g>
</svg>