<svg xmlns="http://www.w3.org/2000/svg" fill="currentColor" width="14" height="14"><path d="M5.636 8.405q-.574-.573-.574-1.384 0-.811.574-1.385t1.385-.574q.81 0 1.385.574.573.574.573 1.385 0 .81-.573 1.384-.574.574-1.385.574t-1.385-.574zm.707-.707q.28.281.678.281.397 0 .677-.28.281-.281.281-.678t-.28-.678q-.281-.28-.678-.28t-.678.28q-.28.28-.28.678 0 .397.28.677z"/><path d="M1.886 4.444q.718-1.446 2.059-2.305 1.388-.889 3.052-.889 1.668 0 3.07.888Q11.433 3 12.15 4.444q.022.044.035.092.013.047.017.096.003.05-.003.098-.007.05-.022.096-.016.047-.04.09-.025.042-.057.08-.033.036-.072.066-.039.03-.083.052-.044.022-.091.035-.048.013-.097.016-.05.004-.098-.002-.049-.007-.096-.022-.046-.016-.089-.04-.043-.025-.08-.057-.037-.033-.067-.072-.03-.039-.052-.083-.593-1.193-1.72-1.906-1.159-.733-2.537-.733-1.371 0-2.513.731-1.107.71-1.703 1.908-.022.044-.052.083-.03.04-.067.072-.037.032-.08.056-.043.025-.09.04-.046.016-.095.023-.049.006-.098.002-.049-.003-.097-.016-.047-.013-.091-.035-.044-.021-.083-.052-.04-.03-.072-.067-.032-.037-.056-.08-.025-.042-.04-.09-.016-.046-.023-.095-.006-.048-.002-.098.003-.049.016-.096.013-.048.035-.092zm.947.223q0 .049-.01.097-.009.049-.028.094-.019.046-.046.086-.027.041-.062.076-.035.035-.076.062-.04.028-.086.047-.046.018-.094.028-.048.01-.098.01-.049 0-.097-.01t-.094-.028q-.045-.02-.086-.047-.041-.027-.076-.062-.035-.035-.062-.076-.028-.04-.047-.086-.018-.045-.028-.094-.01-.048-.01-.097 0-.05.01-.098t.028-.094q.02-.045.047-.086.027-.041.062-.076.035-.035.076-.062.04-.027.086-.046.046-.02.094-.029.048-.01.097-.01.05 0 .098.01t.094.029q.045.019.086.046.041.027.076.062.035.035.062.076.027.04.046.086.02.046.029.094.01.048.01.098zm9.369 0q0 .049-.01.097-.01.049-.028.094-.02.046-.047.086-.027.041-.062.076-.035.035-.075.062-.041.028-.087.047-.045.018-.094.028-.048.01-.097.01-.05 0-.098-.01t-.094-.028q-.045-.02-.086-.047-.041-.027-.076-.062-.035-.035-.062-.076-.027-.04-.046-.086-.019-.045-.029-.094-.01-.048-.01-.097 0-.05.01-.098t.029-.094q.019-.045.046-.086.027-.041.062-.076.035-.035.076-.062.04-.027.086-.046.046-.02.094-.029.048-.01.098-.01.049 0 .097.01.049.01.094.029.046.019.087.046.04.027.075.062.035.035.062.076.028.04.047.086.019.046.028.094.01.048.01.098z"/><path d="M1.833 4.667V2.333q0-.049.01-.097.01-.049.028-.094.02-.046.047-.086.027-.041.062-.076.035-.035.076-.062.04-.028.086-.047.046-.018.094-.028.048-.01.097-.01.05 0 .098.01t.094.028q.045.02.086.047.041.027.076.062.035.035.062.076.027.04.046.086.02.045.029.094.01.048.01.097v2.334q0 .049-.01.097-.01.049-.029.094-.019.045-.046.086-.027.041-.062.076-.035.035-.076.062-.04.028-.086.047-.046.018-.094.028-.048.01-.098.01-.049 0-.097-.01t-.094-.028q-.045-.02-.086-.047-.041-.027-.076-.062-.035-.035-.062-.076-.028-.04-.047-.086-.018-.045-.028-.094-.01-.048-.01-.097zm1 0q0 .049-.01.097-.009.049-.028.094-.019.045-.046.086-.027.041-.062.076-.035.035-.076.062-.04.028-.086.047-.046.018-.094.028-.048.01-.098.01-.049 0-.097-.01t-.094-.028q-.045-.02-.086-.047-.041-.027-.076-.062-.035-.035-.062-.076-.028-.04-.047-.086-.018-.045-.028-.094-.01-.048-.01-.097 0-.05.01-.098t.028-.094q.02-.045.047-.086.027-.041.062-.076.035-.035.076-.062.04-.027.086-.046.046-.02.094-.029.048-.01.097-.01.05 0 .098.01t.094.029q.045.019.086.046.041.027.076.062.035.035.062.076.027.04.046.086.02.046.029.094.01.048.01.098zm0-2.334q0 .05-.01.098-.009.048-.028.094-.019.045-.046.086-.027.041-.062.076-.035.035-.076.062-.04.027-.086.046-.046.02-.094.029-.048.01-.098.01-.049 0-.097-.01t-.094-.029q-.045-.019-.086-.046-.041-.027-.076-.062-.035-.035-.062-.076-.028-.04-.047-.086-.018-.046-.028-.094-.01-.048-.01-.098 0-.049.01-.097.01-.049.028-.094.02-.046.047-.086.027-.041.062-.076.035-.035.076-.062.04-.028.086-.047.046-.018.094-.028.048-.01.097-.01.05 0 .098.01t.094.028q.045.02.086.047.041.027.076.062.035.035.062.076.027.04.046.086.02.045.029.094.01.048.01.097z"/><path d="M2.333 4.167h1.978q.05 0 .097.01.049.009.094.028.046.019.087.046.04.027.075.062.035.035.063.076.027.04.046.086.019.046.028.094.01.048.01.098 0 .049-.01.097-.01.049-.028.094-.019.046-.046.086-.028.041-.063.076-.034.035-.075.062-.041.028-.087.047-.045.018-.094.028-.048.01-.097.01H2.333q-.049 0-.097-.01t-.094-.028q-.045-.02-.086-.047-.041-.027-.076-.062-.035-.035-.062-.076-.028-.04-.047-.086-.018-.045-.028-.094-.01-.048-.01-.097 0-.05.01-.098t.028-.094q.02-.045.047-.086.027-.041.062-.076.035-.035.076-.062.04-.027.086-.046.046-.02.094-.029.048-.01.097-.01zm.5.5q0 .049-.01.097-.009.049-.028.094-.019.046-.046.086-.027.041-.062.076-.035.035-.076.062-.04.028-.086.047-.046.018-.094.028-.048.01-.098.01-.049 0-.097-.01t-.094-.028q-.045-.02-.086-.047-.041-.027-.076-.062-.035-.035-.062-.076-.028-.04-.047-.086-.018-.045-.028-.094-.01-.048-.01-.097 0-.05.01-.098t.028-.094q.02-.045.047-.086.027-.041.062-.076.035-.035.076-.062.04-.027.086-.046.046-.02.094-.029.048-.01.097-.01.05 0 .098.01t.094.029q.045.019.086.046.041.027.076.062.035.035.062.076.027.04.046.086.02.046.029.094.01.048.01.098zm1.978 0q0 .049-.01.097-.01.049-.028.094-.019.046-.046.086-.028.041-.063.076-.034.035-.075.062-.041.028-.087.047-.045.018-.094.028-.048.01-.097.01-.05 0-.098-.01T4.12 5.13q-.046-.02-.087-.047-.04-.027-.076-.062-.034-.035-.062-.076-.027-.04-.046-.086-.019-.045-.028-.094-.01-.048-.01-.097 0-.05.01-.098t.028-.094q.019-.045.046-.086.028-.041.062-.076.035-.035.076-.062.041-.027.087-.046.045-.02.093-.029.049-.01.098-.01.05 0 .097.01.049.01.094.029.046.019.087.046.04.027.075.062.035.035.063.076.027.04.046.086.019.046.028.094.01.048.01.098zm7.339 4.889q-.72 1.446-2.06 2.305-1.388.889-3.052.889-1.668 0-3.07-.888Q2.602 11 1.885 9.556q-.022-.044-.035-.092-.013-.047-.016-.096-.004-.05.002-.098.007-.05.022-.096.016-.047.04-.09.025-.042.057-.08.033-.036.072-.066.039-.03.083-.052.044-.022.091-.035.048-.013.097-.016.05-.004.098.002.049.007.096.022.046.016.089.04.043.025.08.057.037.033.067.072.03.039.052.083.593 1.193 1.721 1.906 1.158.733 2.536.733 1.372 0 2.513-.731 1.107-.71 1.703-1.908.022-.044.052-.083.03-.04.067-.072.037-.032.08-.056.043-.025.09-.04.046-.016.095-.023.049-.006.098-.002.05.003.097.016.047.013.091.035.044.021.083.052.04.03.072.067.032.037.057.08.024.042.04.09.015.046.022.095.006.048.003.098-.004.049-.017.096-.013.048-.035.092zm.052-.223q0 .05-.01.098t-.028.094q-.02.045-.047.086-.027.041-.062.076-.035.035-.075.062-.041.027-.087.046-.045.02-.094.029-.048.01-.097.01-.05 0-.098-.01t-.094-.029q-.045-.019-.086-.046-.041-.027-.076-.062-.035-.035-.062-.076-.027-.04-.046-.086-.019-.046-.029-.094-.01-.048-.01-.098 0-.049.01-.097.01-.049.029-.094.019-.046.046-.086.027-.041.062-.076.035-.035.076-.062.04-.028.086-.047.046-.018.094-.028.048-.01.098-.01.049 0 .097.01.049.01.094.028.046.02.087.047.04.027.075.062.035.035.062.076.028.04.047.086.019.045.028.094.01.048.01.097zm-9.369 0q0 .05-.01.098-.009.048-.028.094-.019.045-.046.086-.027.041-.062.076-.035.035-.076.062-.04.027-.086.046-.046.02-.094.029-.048.01-.098.01-.049 0-.097-.01t-.094-.029q-.045-.019-.086-.046-.041-.027-.076-.062-.035-.035-.062-.076-.028-.04-.047-.086-.018-.046-.028-.094-.01-.048-.01-.098 0-.049.01-.097.01-.049.028-.094.02-.046.047-.086.027-.041.062-.076.035-.035.076-.062.04-.028.086-.047.046-.018.094-.028.048-.01.097-.01.05 0 .098.01t.094.028q.045.02.086.047.041.027.076.062.035.035.062.076.027.04.046.086.02.045.029.094.01.048.01.097z"/><path d="M12.202 9.333v2.334q0 .049-.01.097-.01.049-.028.094-.02.045-.047.086-.027.041-.062.076-.035.035-.076.062-.04.028-.086.047-.045.018-.094.028-.048.01-.097.01-.05 0-.098-.01t-.094-.028q-.045-.02-.086-.047-.041-.027-.076-.062-.035-.035-.062-.076-.027-.04-.046-.086-.02-.045-.029-.094-.01-.048-.01-.097V9.333q0-.049.01-.097.01-.049.029-.094.019-.046.046-.086.027-.041.062-.076.035-.035.076-.062.04-.028.086-.047.046-.018.094-.028.048-.01.098-.01.049 0 .097.01.049.01.094.028.045.02.086.047.041.027.076.062.035.035.062.076.028.04.047.086.018.045.028.094.01.048.01.097zm0 0q0 .05-.01.098t-.028.094q-.02.045-.047.086-.027.041-.062.076-.035.035-.076.062-.04.027-.086.046-.045.02-.094.029-.048.01-.097.01-.05 0-.098-.01t-.094-.029q-.045-.019-.086-.046-.041-.027-.076-.062-.035-.035-.062-.076-.027-.04-.046-.086-.02-.046-.029-.094-.01-.048-.01-.098 0-.049.01-.097.01-.049.029-.094.019-.046.046-.086.027-.041.062-.076.035-.035.076-.062.04-.028.086-.047.046-.018.094-.028.048-.01.098-.01.049 0 .097.01.049.01.094.028.045.02.086.047.041.027.076.062.035.035.062.076.028.04.047.086.018.045.028.094.01.048.01.097zm0 2.334q0 .049-.01.097-.01.049-.028.094-.02.045-.047.086-.027.041-.062.076-.035.035-.076.062-.04.028-.086.047-.045.018-.094.028-.048.01-.097.01-.05 0-.098-.01t-.094-.028q-.045-.02-.086-.047-.041-.027-.076-.062-.035-.035-.062-.076-.027-.04-.046-.086-.02-.045-.029-.094-.01-.048-.01-.097 0-.05.01-.098t.029-.094q.019-.045.046-.086.027-.041.062-.076.035-.035.076-.062.04-.027.086-.046.046-.02.094-.029.048-.01.098-.01.049 0 .097.01.049.01.094.029.045.019.086.046.041.027.076.062.035.035.062.076.028.04.047.086.018.046.028.094.01.048.01.098z"/><path d="M11.702 9.833H9.724q-.05 0-.097-.01-.049-.009-.094-.028-.046-.019-.087-.046-.04-.027-.075-.062-.035-.035-.063-.076-.027-.04-.046-.086-.019-.046-.028-.094-.01-.048-.01-.098 0-.049.01-.097.01-.049.028-.094.019-.046.046-.086.028-.041.063-.076.034-.035.075-.062.041-.028.087-.047.045-.018.094-.028.048-.01.097-.01h1.978q.049 0 .097.01.049.01.094.028.046.02.086.047.041.027.076.062.035.035.062.076.028.04.047.086.018.045.028.094.01.048.01.097 0 .05-.01.098t-.028.094q-.02.045-.047.086-.027.041-.062.076-.035.035-.076.062-.04.027-.086.046-.045.02-.094.029-.048.01-.097.01zm.5-.5q0 .05-.01.098t-.028.094q-.02.045-.047.086-.027.041-.062.076-.035.035-.076.062-.04.027-.086.046-.045.02-.094.029-.048.01-.097.01-.05 0-.098-.01t-.094-.029q-.045-.019-.086-.046-.041-.027-.076-.062-.035-.035-.062-.076-.027-.04-.046-.086-.02-.046-.029-.094-.01-.048-.01-.098 0-.049.01-.097.01-.049.029-.094.019-.046.046-.086.027-.041.062-.076.035-.035.076-.062.04-.028.086-.047.046-.018.094-.028.048-.01.098-.01.049 0 .097.01.049.01.094.028.046.02.086.047.041.027.076.062.035.035.062.076.028.04.047.086.018.045.028.094.01.048.01.097zm-1.978 0q0 .05-.01.098t-.028.094q-.019.045-.046.086-.028.041-.062.076-.035.035-.076.062-.041.027-.087.046-.045.02-.093.029-.049.01-.098.01-.05 0-.097-.01-.049-.01-.094-.029-.046-.019-.087-.046-.04-.027-.075-.062-.035-.035-.063-.076-.027-.04-.046-.086-.019-.046-.028-.094-.01-.048-.01-.098 0-.049.01-.097.01-.049.028-.094.019-.046.046-.086.028-.041.063-.076.034-.035.075-.062.041-.028.087-.047.045-.018.094-.028.048-.01.097-.01.05 0 .098.01t.093.028q.046.02.087.047.04.027.076.062.034.035.062.076.027.04.046.086.019.045.029.094.01.048.01.097z"/></svg>