<svg xmlns="http://www.w3.org/2000/svg" fill="none" width="22" height="22">
  <defs>
    <clipPath id="a">
      <rect width="22" height="22" rx="0" />
    </clipPath>
  </defs>
  <g>
    <ellipse cx="11" cy="4.583" rx="2.75" ry="2.75" stroke="currentColor" stroke-linecap="ROUND"
      stroke-linejoin="round" />
    <path
      d="M7.292 20.167v-4.125h.5l-.313.39L5.188 14.6q-.06-.048-.103-.112-.043-.063-.065-.137Q5 14.276 5 14.2q.001-.077.026-.15l1.833-5.5q.05-.148.174-.242Q9 6.833 11 6.833t3.967 1.475q.13.098.178.253l1.833 5.959q.024.08.022.164-.003.083-.033.162-.03.078-.084.142-.054.064-.126.107l-2.291 1.375-.258-.428h.5v4.125q0 .049-.01.097-.009.049-.028.094-.019.046-.046.086-.027.041-.062.076-.035.035-.076.062-.04.028-.086.047-.046.018-.094.028-.048.01-.098.01-.049 0-.097-.01-.049-.01-.094-.028-.046-.02-.086-.047-.041-.027-.076-.062-.035-.035-.062-.076-.028-.04-.047-.086-.018-.045-.028-.094-.01-.048-.01-.097v-4.125q0-.065.017-.128.016-.062.048-.119.032-.056.077-.102.046-.047.101-.08l2.292-1.375.257.429-.478.147-1.833-5.959.478-.147-.3.4Q12.667 7.833 11 7.833T7.633 9.108l-.3-.4.475.158-1.834 5.5-.474-.158.312-.39 2.292 1.833q.089.071.138.174.05.103.05.217v4.125q0 .049-.01.097-.01.049-.028.094-.02.046-.047.086-.027.041-.062.076-.035.035-.076.062-.04.028-.086.047-.045.018-.094.028-.048.01-.097.01-.05 0-.098-.01t-.094-.028q-.045-.02-.086-.047-.041-.027-.076-.062-.035-.035-.062-.076-.027-.04-.046-.086-.02-.045-.029-.094-.01-.048-.01-.097zm1 0q0 .049-.01.097-.01.049-.028.094-.02.046-.047.086-.027.041-.062.076-.035.035-.076.062-.04.028-.086.047-.045.018-.094.028-.048.01-.097.01-.05 0-.098-.01t-.094-.028q-.045-.02-.086-.047-.041-.027-.076-.062-.035-.035-.062-.076-.027-.04-.046-.086-.02-.045-.029-.094-.01-.048-.01-.097 0-.05.01-.098t.029-.094q.019-.045.046-.086.027-.041.062-.076.035-.035.076-.062.04-.027.086-.046.046-.02.094-.029.048-.01.098-.01.049 0 .097.01.049.01.094.029.046.019.086.046.041.027.076.062.035.035.062.076.028.04.047.086.018.046.028.094.01.048.01.098zm6.416 0q0 .049-.01.097-.009.049-.028.094-.019.046-.046.086-.027.041-.062.076-.035.035-.076.062-.04.028-.086.047-.046.018-.094.028-.048.01-.098.01-.049 0-.097-.01-.049-.01-.094-.028-.046-.02-.086-.047-.041-.027-.076-.062-.035-.035-.062-.076-.028-.04-.047-.086-.018-.045-.028-.094-.01-.048-.01-.097 0-.05.01-.098t.028-.094q.02-.045.047-.086.027-.041.062-.076.035-.035.076-.062.04-.027.086-.046.045-.02.094-.029.048-.01.097-.01.05 0 .098.01t.094.029q.045.019.086.046.041.027.076.062.035.035.062.076.027.04.046.086.02.046.029.094.01.048.01.098z"
      fill="currentColor" />
  </g>
</svg>