<svg xmlns="http://www.w3.org/2000/svg" fill="none" width="18" height="18">
  <defs>
    <clipPath id="a">
      <rect width="18" height="18" rx="0" />
    </clipPath>
  </defs>
  <g>
    <rect width="18" height="18" rx="0" fill="#FFF" fill-opacity=".01" />
    <path
      d="M2 9q0 2.9 2.05 4.95Q6.1 16 9 16q2.9 0 4.95-2.05Q16 11.9 16 9q0-2.9-2.05-4.95Q11.9 2 9 2 6.1 2 4.05 4.05 2 6.1 2 9zM1 9q0-3.314 2.343-5.657T9 1q3.314 0 5.657 2.343T17 9q0 3.314-2.343 5.657T9 17q-3.314 0-5.657-2.343T1 9z"
      fill="currentColor" fill-opacity=".9" />
    <path
      d="M7.625 6.75q0 .57.403.972.402.403.972.403t.972-.403q.403-.402.403-.972t-.403-.972Q9.57 5.375 9 5.375t-.972.403q-.403.402-.403.972zm-1 0q0-.984.696-1.68.695-.695 1.679-.695.984 0 1.68.696.695.695.695 1.679 0 .984-.696 1.68-.695.695-1.679.695-.984 0-1.68-.696-.695-.695-.695-1.679zM13.742 14.4q-.086-1.27-1.019-2.146-.937-.879-2.223-.879h-3q-1.287 0-2.225.881-.934.878-1.018 2.151-.003.05-.016.097-.013.048-.034.092-.022.044-.052.083-.03.04-.067.072-.037.032-.08.057-.043.024-.09.04-.046.016-.095.022-.048.007-.098.003-.049-.003-.096-.016-.048-.012-.092-.034-.044-.022-.083-.052-.04-.03-.072-.067-.032-.037-.057-.08-.024-.042-.04-.089-.016-.047-.022-.095-.007-.05-.004-.098.11-1.667 1.331-2.814 1.226-1.153 2.91-1.153h3q1.681 0 2.907 1.15 1.22 1.144 1.333 2.808.004.049-.003.098-.006.049-.022.095-.015.047-.04.09-.025.042-.057.08-.032.037-.071.067-.04.03-.083.052-.045.022-.092.034-.048.013-.097.017-.049.003-.098-.003-.049-.007-.095-.022-.047-.016-.09-.04-.042-.025-.08-.058-.036-.032-.067-.07-.03-.04-.052-.084-.021-.044-.034-.092-.013-.047-.017-.096zm1-.033q0 .049-.01.097-.01.049-.029.094-.019.046-.046.087-.027.04-.062.075-.035.035-.076.062-.04.028-.086.047-.046.019-.094.028-.048.01-.098.01-.049 0-.097-.01t-.094-.028q-.045-.02-.086-.047-.041-.027-.076-.062-.035-.035-.062-.075-.028-.041-.047-.087-.018-.045-.028-.094-.01-.048-.01-.097 0-.05.01-.098t.028-.094q.02-.045.047-.086.027-.041.062-.076.035-.035.076-.062.04-.027.086-.046.046-.02.094-.029.048-.01.097-.01.05 0 .098.01t.094.029q.045.019.086.046.041.027.076.062.035.035.062.076.027.04.046.086.02.046.029.094.01.048.01.098zm-10.484.007q0 .05-.01.098-.009.048-.028.094-.019.045-.046.086-.027.041-.062.076-.035.035-.076.062-.04.028-.086.046-.046.02-.094.029-.048.01-.098.01-.049 0-.097-.01-.049-.01-.094-.029-.046-.018-.086-.046-.041-.027-.076-.062-.035-.035-.062-.076-.028-.04-.047-.086-.018-.046-.028-.094-.01-.048-.01-.098 0-.049.01-.097t.028-.094q.02-.045.047-.086.027-.041.062-.076.035-.035.076-.062.04-.028.086-.046.045-.02.094-.029.048-.01.097-.01.05 0 .098.01t.094.029q.045.018.086.046.041.027.076.062.035.035.062.076.027.04.046.086.02.046.029.094.01.048.01.098z"
      fill="currentColor" fill-opacity=".9" />
  </g>
</svg>