<svg xmlns="http://www.w3.org/2000/svg" fill="none" width="18" height="18">
  <defs>
    <clipPath id="a">
      <rect width="18" height="18" rx="0" />
    </clipPath>
  </defs>
  <g>
    <rect width="18" height="18" rx="0" fill="#FFF" fill-opacity=".01" />
    <path
      d="M3.991 5.38Q6.086 1.75 9 1.75q.05 0 .098.01t.093.028q.046.019.087.046.04.028.076.062.034.035.062.076.027.041.046.087.019.045.028.093.01.049.01.098v13.5q0 .05-.01.098t-.028.093q-.019.046-.046.087-.028.04-.062.076-.035.034-.076.062-.041.027-.087.046-.045.019-.093.028-.049.01-.098.01-2.916 0-5.01-3.688l.434-.247v.5H2.25q-.518 0-.884-.366Q1 12.082 1 11.565V6.379q0-.518.366-.884t.884-.366h2.174v.5l-.433-.25zm.866.499q-.032.057-.079.104-.047.046-.104.08-.057.032-.12.049-.064.017-.13.017H2.25q-.104 0-.177.073T2 6.38v5.186q0 .25.25.25h2.174q.067 0 .13.017.065.017.122.05.057.034.104.081.047.047.08.105Q6.665 15.25 9 15.25v.5h-.5V2.25H9v.5q-2.336 0-4.143 3.129zM11.667 12.002q.32-.286.573-.636Q13 10.314 13 9q0-1.326-.772-2.383-.249-.34-.561-.62-.037-.032-.066-.071-.03-.04-.051-.084-.022-.044-.034-.092-.012-.048-.015-.097-.003-.049.004-.098.007-.048.023-.095.016-.046.041-.089.025-.042.058-.079t.072-.066q.04-.03.084-.051.044-.022.092-.034.048-.012.097-.015.049-.003.098.004.048.007.095.023.046.016.089.041.042.025.079.058.392.35.702.775Q14 7.348 14 9q0 1.637-.949 2.951-.316.438-.718.797-.037.033-.08.058-.042.025-.088.041-.047.016-.095.023-.05.007-.098.004-.05-.003-.097-.015-.048-.012-.092-.034-.044-.021-.084-.05-.04-.03-.072-.067-.033-.037-.058-.08-.025-.042-.041-.088-.016-.047-.023-.095-.007-.05-.004-.098.003-.05.015-.097.012-.048.034-.092.021-.044.05-.084.03-.04.067-.072zm.833.373q0 .05-.01.098t-.028.093q-.019.046-.046.087-.028.04-.062.076-.035.034-.076.062-.041.027-.087.046-.045.019-.093.028-.049.01-.098.01-.05 0-.098-.01t-.093-.028q-.046-.019-.087-.046-.04-.028-.076-.062-.034-.035-.062-.076-.027-.041-.046-.087-.019-.045-.028-.093-.01-.049-.01-.098 0-.05.01-.098t.028-.093q.019-.046.046-.087.028-.04.062-.076.035-.034.076-.062.041-.027.087-.046.045-.019.093-.028.049-.01.098-.01.05 0 .098.01t.093.028q.046.019.087.046.04.028.076.062.034.035.062.076.027.041.046.087.019.045.028.093.01.049.01.098zm0-6.75q0 .05-.01.098t-.028.093q-.019.046-.046.087-.028.04-.062.076-.035.034-.076.062-.041.027-.087.046-.045.019-.093.028-.049.01-.098.01-.05 0-.098-.01t-.093-.028q-.046-.019-.087-.046-.04-.028-.076-.062-.034-.035-.062-.076-.027-.041-.046-.087-.019-.045-.028-.093-.01-.049-.01-.098 0-.05.01-.098t.028-.093q.019-.046.046-.087.028-.04.062-.076.035-.034.076-.062.041-.027.087-.046.045-.019.093-.028.049-.01.098-.01.05 0 .098.01t.093.028q.046.019.087.046.04.028.076.062.034.035.062.076.027.041.046.087.019.045.028.093.01.049.01.098z"
      fill="currentColor" fill-opacity=".9" />
    <path
      d="M13.203 2.192q1.74 1.076 2.753 2.853Q17 6.878 17 9q0 2.155-1.076 4.01-1.044 1.798-2.83 2.864-.042.025-.088.042-.046.016-.095.023-.049.007-.098.005-.05-.003-.097-.015-.048-.012-.092-.033-.045-.02-.084-.05-.04-.03-.073-.066-.033-.037-.058-.08-.025-.041-.042-.088-.016-.046-.023-.095-.007-.049-.005-.098.003-.049.015-.097.012-.047.033-.092.02-.044.05-.084.03-.04.066-.072.037-.033.08-.059 1.562-.933 2.476-2.507.94-1.622.94-3.508 0-1.857-.912-3.46-.886-1.555-2.41-2.498-.042-.026-.078-.06-.036-.033-.065-.073-.028-.04-.049-.084-.02-.045-.032-.093-.01-.048-.013-.097-.001-.05.007-.098.007-.049.025-.095.017-.046.043-.088.026-.042.06-.078.033-.036.073-.065.04-.028.085-.049.044-.02.092-.032.048-.01.098-.013.049-.001.097.007.049.008.095.025t.088.043zm.237.425q0 .05-.01.098t-.028.093q-.019.046-.046.087-.028.04-.062.076-.035.035-.076.062-.041.027-.087.046-.045.019-.093.029-.049.01-.098.01-.05 0-.097-.01-.049-.01-.094-.029-.046-.019-.087-.046-.04-.027-.075-.062-.035-.035-.063-.076-.027-.041-.046-.087-.019-.045-.028-.093-.01-.049-.01-.098 0-.05.01-.097.01-.049.028-.094.019-.046.046-.087.028-.04.063-.075.034-.035.075-.063.041-.027.087-.046.045-.019.094-.028.048-.01.097-.01.05 0 .098.01t.093.028q.046.019.087.046.04.028.076.063.034.034.062.075.027.041.046.087.019.045.028.094.01.048.01.097zm-.102 12.828q0 .049-.01.097-.009.048-.028.094-.019.045-.046.086-.027.041-.062.076-.035.035-.076.062-.04.028-.086.047-.046.018-.094.028-.048.01-.098.01-.049 0-.097-.01t-.094-.028q-.045-.02-.086-.047-.041-.027-.076-.062-.035-.035-.062-.076-.028-.04-.047-.086-.018-.046-.028-.094-.01-.048-.01-.097 0-.05.01-.098t.028-.094q.02-.045.047-.086.027-.041.062-.076.035-.035.076-.062.04-.027.086-.046.046-.02.094-.029.048-.01.097-.01.05 0 .098.01t.094.029q.045.019.086.046.041.027.076.062.035.035.062.076.027.04.046.086.02.046.029.094.01.048.01.098z"
      fill="currentColor" fill-opacity=".9" />
  </g>
</svg>