<svg xmlns="http://www.w3.org/2000/svg" fill="none" width="14" height="14">
  <g>
    <path
      d="M1.25 12.833V6.417q0-2.382 1.684-4.066Q4.618.667 7 .667q2.382 0 4.066 1.684 1.684 1.684 1.684 4.066v6.416q0 .05-.01.098t-.028.094q-.019.045-.046.086-.028.041-.062.076-.035.035-.076.062-.041.027-.087.046-.045.02-.094.029-.048.01-.097.01-.05 0-.098-.01t-.093-.029q-.046-.019-.087-.046-.04-.027-.076-.062-.034-.035-.062-.076-.027-.04-.046-.086-.019-.046-.028-.094-.01-.048-.01-.098V6.417q0-1.968-1.391-3.36Q8.968 1.668 7 1.668t-3.359 1.39Q2.25 4.45 2.25 6.418v6.416q0 .05-.01.098t-.028.094q-.019.045-.046.086-.028.041-.062.076-.035.035-.076.062-.041.027-.087.046-.045.02-.093.029-.049.01-.098.01-.05 0-.098-.01t-.093-.029q-.046-.019-.087-.046-.04-.027-.076-.062-.034-.035-.062-.076-.027-.04-.046-.086-.019-.046-.028-.094-.01-.048-.01-.098zm1 0q0 .05-.01.098t-.028.094q-.019.045-.046.086-.028.041-.062.076-.035.035-.076.062-.041.027-.087.046-.045.02-.093.029-.049.01-.098.01-.05 0-.098-.01t-.093-.029q-.046-.019-.087-.046-.04-.027-.076-.062-.034-.035-.062-.076-.027-.04-.046-.086-.019-.046-.028-.094-.01-.048-.01-.098 0-.049.01-.097.01-.049.028-.094.019-.046.046-.086.028-.041.062-.076.035-.035.076-.062.041-.028.087-.047.045-.018.093-.028.049-.01.098-.01.05 0 .098.01t.093.028q.046.02.087.047.04.027.076.062.034.035.062.076.027.04.046.086.019.045.028.094.01.048.01.097zm10.5 0q0 .05-.01.098t-.028.094q-.019.045-.046.086-.028.041-.062.076-.035.035-.076.062-.041.027-.087.046-.045.02-.094.029-.048.01-.097.01-.05 0-.098-.01t-.093-.029q-.046-.019-.087-.046-.04-.027-.076-.062-.034-.035-.062-.076-.027-.04-.046-.086-.019-.046-.028-.094-.01-.048-.01-.098 0-.049.01-.097.01-.049.028-.094.019-.046.046-.086.028-.041.062-.076.035-.035.076-.062.041-.028.087-.047.045-.018.094-.028.048-.01.097-.01.05 0 .098.01t.093.028q.046.02.087.047.04.027.076.062.034.035.062.076.027.04.046.086.019.045.028.094.01.048.01.097z"
      fill="currentColor" />
    <path
      d="M4.583 6.708q0 2.299.802 3.901Q6.1 12.042 7 12.042q.9 0 1.615-1.433.802-1.602.802-3.9h.5v.5H4.083v-.5h.5zm-1 0q0-.049.01-.097.01-.049.028-.094.02-.046.047-.086.027-.041.062-.076.035-.035.076-.062.04-.028.086-.047.045-.018.094-.028.048-.01.097-.01h5.834q.049 0 .097.01.049.01.094.028.046.02.086.047.041.027.076.062.035.035.062.076.028.04.047.086.018.045.028.094.01.048.01.097 0 2.535-.907 4.349-.993 1.985-2.51 1.985t-2.51-1.985q-.907-1.814-.907-4.349z"
      fill="currentColor" />
  </g>
</svg>