<svg xmlns="http://www.w3.org/2000/svg" fill="none" width="18" height="16"><g style="mix-blend-mode:passthrough" fill="currentColor" fill-opacity=".9"><path d="M17.234 5.898l-7.935 4.573a.664.664 0 0 1-.6 0L.766 5.898c-.377-.217-.377-.573 0-.79L8.701.535a.664.664 0 0 1 .6 0l7.935 4.573c.375.217.375.573-.002.79z"/><path d="M9 11.005c-.19 0-.38-.044-.534-.134L.53 6.298C.204 6.11.015 5.82.015 5.504c0-.317.19-.607.516-.796L8.466.134a1.13 1.13 0 0 1 1.068 0l7.934 4.574c.328.189.516.477.516.796 0 .316-.188.607-.516.794l-7.934 4.573c-.155.09-.346.134-.534.134zM1.009 5.502l7.927 4.57a.232.232 0 0 0 .132-.003l7.923-4.567L9.064.935a.231.231 0 0 0-.132.002L1.009 5.502z"/><path d="M9 13.503c-.19 0-.38-.043-.534-.133L.232 8.624a.46.46 0 0 1-.168-.633.468.468 0 0 1 .638-.168l8.234 4.747a.231.231 0 0 0 .132-.002l8.23-4.745a.468.468 0 0 1 .638.168.46.46 0 0 1-.168.633L9.534 13.37c-.155.09-.345.133-.534.133z"/><path d="M9 16c-.19 0-.38-.044-.534-.133L.232 11.12a.46.46 0 0 1-.168-.633.468.468 0 0 1 .638-.167l8.234 4.746a.231.231 0 0 0 .132-.002l8.23-4.744a.468.468 0 0 1 .638.167.46.46 0 0 1-.168.633l-8.234 4.747C9.379 15.957 9.19 16 9 16z"/></g></svg>