<svg xmlns="http://www.w3.org/2000/svg" fill="none" width="14" height="14"><g style="mix-blend-mode:passthrough" fill="currentColor"><path d="M13 1.583q0-.241-.17-.412Q12.657 1 12.416 1H1.583q-.241 0-.412.17Q1 1.343 1 1.584v10.834q0 .241.17.412.172.171.413.171h10.834q.241 0 .412-.17.171-.172.171-.413V1.583zm1 0v10.834q0 .655-.464 1.12-.463.463-1.12.463H1.584q-.656 0-1.12-.464Q0 13.073 0 12.416V1.584Q0 .927.464.463.927 0 1.584 0h10.833q.655 0 1.12.464.463.463.463 1.12z"/><path d="M3.528 4.833q0 .541.382.924.383.382.923.382.541 0 .924-.382.382-.383.382-.924 0-.54-.382-.923-.383-.382-.924-.382-.54 0-.923.382-.382.383-.382.923zm-1 0q0-.955.675-1.63.675-.675 1.63-.675.955 0 1.63.675.676.675.676 1.63 0 .955-.675 1.63-.676.676-1.63.676-.956 0-1.63-.675-.676-.676-.676-1.63zM3.71 13.2l4.258-5.698q.374-.5 1-.49.624.01.982.523l3.169 4.544q.423.607.08 1.264-.342.657-1.083.657H4.111q-.049 0-.097-.01-.049-.01-.094-.028-.046-.019-.086-.046-.041-.028-.076-.062-.035-.035-.062-.076-.028-.041-.047-.087-.018-.045-.028-.093-.01-.049-.01-.098 0-.166.1-.3zm.802.6l-.4-.3V13h8.004q.135 0 .197-.12.062-.119-.015-.23L9.13 8.108q-.065-.094-.179-.095-.114-.002-.182.089L4.512 13.8z"/></g></svg>