<svg xmlns="http://www.w3.org/2000/svg" width="14" height="14"><g fill="currentColor"><path d="M1.52 9.855l1.75 1.75-.353.353-.354-.353 1.75-1.75q.035-.035.076-.062.04-.028.086-.047.046-.018.094-.028.048-.01.098-.01.049 0 .097.01t.094.028q.045.02.086.047.041.027.076.062.035.035.062.076.028.04.046.086.02.045.029.094.01.048.01.097 0 .05-.01.098t-.029.094q-.018.045-.046.086-.027.041-.062.076l-1.75 1.75q-.035.035-.076.062-.04.027-.086.046-.046.02-.094.029-.048.01-.097.01-.05 0-.098-.01t-.094-.029q-.045-.019-.086-.046-.041-.027-.076-.062l-1.75-1.75q-.035-.035-.062-.076-.028-.04-.046-.086-.02-.046-.029-.094-.01-.048-.01-.098 0-.049.01-.097.01-.049.029-.094.018-.045.046-.086.027-.041.062-.076.035-.035.076-.062.04-.028.086-.047.046-.018.094-.028.048-.01.098-.01.049 0 .097.01t.094.028q.045.02.086.047.041.027.076.062zm.147.353q0 .05-.01.098t-.029.094q-.018.045-.046.086-.027.041-.062.076-.035.035-.076.062-.04.027-.086.046-.046.02-.094.029-.048.01-.097.01-.05 0-.098-.01t-.094-.029q-.045-.019-.086-.046-.041-.027-.076-.062-.035-.035-.062-.076-.028-.04-.046-.086-.02-.046-.029-.094-.01-.048-.01-.098 0-.049.01-.097.01-.049.029-.094.018-.045.046-.086.027-.041.062-.076.035-.035.076-.062.04-.028.086-.047.046-.018.094-.028.048-.01.098-.01.049 0 .097.01t.094.028q.045.02.086.047.041.027.076.062.035.035.062.076.028.04.046.086.02.045.029.094.01.048.01.097zm3.5 0q0 .05-.01.098t-.029.094q-.018.045-.046.086-.027.041-.062.076-.035.035-.076.062-.04.027-.086.046-.046.02-.094.029-.048.01-.097.01-.05 0-.098-.01t-.094-.029q-.045-.019-.086-.046-.041-.027-.076-.062-.035-.035-.062-.076-.028-.04-.046-.086-.02-.046-.029-.094-.01-.048-.01-.098 0-.049.01-.097.01-.049.029-.094.018-.045.046-.086.027-.041.062-.076.035-.035.076-.062.04-.028.086-.047.046-.018.094-.028.048-.01.098-.01.049 0 .097.01t.094.028q.045.02.086.047.041.027.076.062.035.035.062.076.028.04.046.086.02.045.029.094.01.048.01.097zM.813 3.438l1.75-1.75q.035-.035.076-.062.04-.027.086-.046.046-.02.094-.029.048-.01.098-.01.049 0 .097.01t.094.029q.045.019.086.046.041.027.076.062l1.75 1.75q.035.035.062.076.028.04.046.086.02.046.029.094.01.048.01.098 0 .049-.01.097t-.029.094q-.018.045-.046.086-.027.041-.062.076-.035.035-.076.062-.04.028-.086.047-.046.018-.094.028-.048.01-.097.01-.05 0-.098-.01t-.094-.028q-.045-.02-.086-.047-.041-.027-.076-.062l-1.75-1.75.354-.353.353.353-1.75 1.75q-.035.035-.076.062-.04.028-.086.047-.046.018-.094.028-.048.01-.097.01-.05 0-.098-.01t-.094-.028Q.93 4.234.89 4.207.848 4.18.813 4.145.778 4.11.751 4.07q-.028-.04-.046-.086-.02-.046-.029-.094-.01-.048-.01-.097 0-.05.01-.098T.705 3.6q.018-.045.046-.086.027-.041.062-.076zm.854.354q0 .049-.01.097t-.029.094q-.018.045-.046.086-.027.041-.062.076-.035.035-.076.062-.04.028-.086.047-.046.018-.094.028-.048.01-.097.01-.05 0-.098-.01t-.094-.028Q.93 4.234.89 4.207.848 4.18.813 4.145.778 4.11.751 4.07q-.028-.04-.046-.086-.02-.046-.029-.094-.01-.048-.01-.097 0-.05.01-.098T.705 3.6q.018-.045.046-.086.027-.041.062-.076.035-.035.076-.062.04-.027.086-.046.046-.02.094-.029.048-.01.098-.01.049 0 .097.01t.094.029q.045.019.086.046.041.027.076.062.035.035.062.076.028.04.046.086.02.046.029.094.01.048.01.098zm3.5 0q0 .049-.01.097t-.029.094q-.018.045-.046.086-.027.041-.062.076-.035.035-.076.062-.04.028-.086.047-.046.018-.094.028-.048.01-.097.01-.05 0-.098-.01t-.094-.028q-.045-.02-.086-.047-.041-.027-.076-.062-.035-.035-.062-.076-.028-.04-.046-.086-.02-.046-.029-.094-.01-.048-.01-.097 0-.05.01-.098t.029-.094q.018-.045.046-.086.027-.041.062-.076.035-.035.076-.062.04-.027.086-.046.046-.02.094-.029.048-.01.098-.01.049 0 .097.01t.094.029q.045.019.086.046.041.027.076.062.035.035.062.076.028.04.046.086.02.046.029.094.01.048.01.098z"/><path d="M2.417 11.958V2.042q0-.05.01-.098.009-.048.028-.094.018-.045.046-.086.027-.041.062-.076.035-.035.076-.062.04-.027.086-.046.046-.02.094-.029.048-.01.098-.01.049 0 .097.01t.094.029q.045.019.086.046.041.027.076.062.035.035.062.076.028.04.046.086.02.046.029.094.01.048.01.098v9.916q0 .05-.01.098t-.029.094q-.018.045-.046.086-.027.041-.062.076-.035.035-.076.062-.04.027-.086.046-.046.02-.094.029-.048.01-.097.01-.05 0-.098-.01t-.094-.029q-.045-.019-.086-.046-.041-.027-.076-.062-.035-.035-.062-.076-.028-.04-.046-.086-.02-.046-.029-.094-.01-.048-.01-.098zm1 0q0 .05-.01.098t-.029.094q-.018.045-.046.086-.027.041-.062.076-.035.035-.076.062-.04.027-.086.046-.046.02-.094.029-.048.01-.097.01-.05 0-.098-.01t-.094-.029q-.045-.019-.086-.046-.041-.027-.076-.062-.035-.035-.062-.076-.028-.04-.046-.086-.02-.046-.029-.094-.01-.048-.01-.098 0-.049.01-.097.01-.049.029-.094.018-.046.046-.086.027-.041.062-.076.035-.035.076-.062.04-.028.086-.047.046-.018.094-.028.048-.01.098-.01.049 0 .097.01t.094.028q.045.02.086.047.041.027.076.062.035.035.062.076.028.04.046.086.02.045.029.094.01.048.01.097zm0-9.916q0 .049-.01.097-.01.049-.029.094-.018.045-.046.086-.027.041-.062.076-.035.035-.076.062-.04.028-.086.047-.046.018-.094.028-.048.01-.097.01-.05 0-.098-.01t-.094-.028q-.045-.02-.086-.047-.041-.027-.076-.062-.035-.035-.062-.076-.028-.04-.046-.086-.02-.045-.029-.094-.01-.048-.01-.097 0-.05.01-.098t.029-.094q.018-.045.046-.086.027-.041.062-.076.035-.035.076-.062.04-.027.086-.046.046-.02.094-.029.048-.01.098-.01.049 0 .097.01t.094.029q.045.019.086.046.041.027.076.062.035.035.062.076.028.04.046.086.02.046.029.094.01.048.01.098zm3 .083h6.416q.05 0 .098.01t.094.028q.045.019.086.046.04.028.076.062.035.035.062.076.027.041.046.087.019.045.029.093.01.049.01.098 0 .05-.01.098t-.029.093q-.019.046-.046.087-.027.04-.062.076-.035.034-.076.062-.041.027-.086.046-.046.019-.094.028-.049.01-.098.01H6.417q-.05 0-.098-.01t-.094-.028q-.045-.019-.086-.046-.041-.028-.076-.062-.035-.035-.062-.076-.028-.041-.046-.087-.02-.045-.029-.093-.01-.049-.01-.098 0-.05.01-.098t.029-.093q.018-.046.046-.087.027-.04.062-.076.035-.034.076-.062.04-.027.086-.046.046-.019.094-.028.048-.01.098-.01zm.5.5q0 .05-.01.098t-.029.093q-.018.046-.046.087-.027.04-.062.076-.035.034-.076.062-.04.027-.086.046-.046.019-.094.028-.048.01-.097.01-.05 0-.098-.01t-.094-.028q-.045-.019-.086-.046-.041-.028-.076-.062-.035-.035-.062-.076-.028-.041-.046-.087-.02-.045-.029-.093-.01-.049-.01-.098 0-.05.01-.098t.029-.093q.018-.046.046-.087.027-.04.062-.076.035-.034.076-.062.04-.027.086-.046.046-.019.094-.028.048-.01.098-.01.049 0 .097.01t.094.028q.045.019.086.046.041.028.076.062.035.035.062.076.028.041.046.087.02.045.029.093.01.049.01.098zm6.416 0q0 .05-.01.098-.009.048-.028.093-.019.046-.046.087-.027.04-.062.076-.035.034-.076.062-.041.027-.086.046-.046.019-.094.028-.049.01-.098.01-.05 0-.097-.01-.049-.01-.094-.028-.046-.019-.087-.046-.04-.028-.075-.062-.035-.035-.063-.076-.027-.041-.046-.087-.019-.045-.028-.093-.01-.049-.01-.098 0-.05.01-.098t.028-.093q.02-.046.046-.087.028-.04.063-.076.034-.034.075-.062.041-.027.087-.046.045-.019.094-.028.048-.01.097-.01.05 0 .098.01t.094.028q.045.019.086.046.04.028.076.062.035.035.062.076.027.041.046.087.019.045.029.093.01.049.01.098zM6.417 5.042H10.5q.05 0 .097.01.049.009.094.028.046.019.087.046.04.027.075.062.035.035.063.076.027.04.046.086.019.046.028.094.01.048.01.098 0 .049-.01.097-.01.049-.028.094-.02.045-.046.086-.028.041-.063.076-.034.035-.075.062-.041.028-.087.047-.045.018-.094.028-.048.01-.097.01H6.417q-.05 0-.098-.01t-.094-.028q-.045-.02-.086-.047-.041-.027-.076-.062-.035-.035-.062-.076-.028-.04-.046-.086-.02-.045-.029-.094-.01-.048-.01-.097 0-.05.01-.098t.029-.094q.018-.045.046-.086.027-.041.062-.076.035-.035.076-.062.04-.027.086-.046.046-.02.094-.029.048-.01.098-.01zm.5.5q0 .049-.01.097-.01.049-.029.094-.018.045-.046.086-.027.041-.062.076-.035.035-.076.062-.04.028-.086.047-.046.018-.094.028-.048.01-.097.01-.05 0-.098-.01t-.094-.028q-.045-.02-.086-.047-.041-.027-.076-.062-.035-.035-.062-.076-.028-.04-.046-.086-.02-.045-.029-.094-.01-.048-.01-.097 0-.05.01-.098t.029-.094q.018-.045.046-.086.027-.041.062-.076.035-.035.076-.062.04-.027.086-.046.046-.02.094-.029.048-.01.098-.01.049 0 .097.01t.094.029q.045.019.086.046.041.027.076.062.035.035.062.076.028.04.046.086.02.046.029.094.01.048.01.098zm4.083 0q0 .049-.01.097-.01.049-.028.094-.02.045-.046.086-.028.041-.063.076-.034.035-.075.062-.041.028-.087.047-.045.018-.094.028-.048.01-.097.01-.05 0-.098-.01t-.094-.028q-.045-.02-.086-.047-.04-.027-.076-.062-.035-.035-.062-.076-.027-.04-.046-.086-.019-.045-.029-.094-.01-.048-.01-.097 0-.05.01-.098t.029-.094q.019-.045.046-.086.027-.041.062-.076.035-.035.076-.062.041-.027.086-.046.046-.02.094-.029.049-.01.098-.01.05 0 .097.01.049.01.094.029.046.019.087.046.04.027.075.062.035.035.063.076.027.04.046.086.019.046.028.094.01.048.01.098zM6.417 7.958h6.416q.05 0 .098.01t.094.028q.045.02.086.047.04.027.076.062.035.035.062.076.027.04.046.086.019.045.029.094.01.048.01.097 0 .05-.01.098t-.029.094q-.019.045-.046.086-.027.041-.062.076-.035.035-.076.062-.041.027-.086.046-.046.02-.094.029-.049.01-.098.01H6.417q-.05 0-.098-.01t-.094-.029q-.045-.019-.086-.046-.041-.027-.076-.062-.035-.035-.062-.076-.028-.04-.046-.086-.02-.046-.029-.094-.01-.048-.01-.098 0-.049.01-.097.01-.049.029-.094.018-.045.046-.086.027-.041.062-.076.035-.035.076-.062.04-.028.086-.047.046-.018.094-.028.048-.01.098-.01zm.5.5q0 .05-.01.098t-.029.094q-.018.045-.046.086-.027.041-.062.076-.035.035-.076.062-.04.027-.086.046-.046.02-.094.029-.048.01-.097.01-.05 0-.098-.01t-.094-.029q-.045-.019-.086-.046-.041-.027-.076-.062-.035-.035-.062-.076-.028-.04-.046-.086-.02-.046-.029-.094-.01-.048-.01-.098 0-.049.01-.097.01-.049.029-.094.018-.045.046-.086.027-.041.062-.076.035-.035.076-.062.04-.028.086-.047.046-.018.094-.028.048-.01.098-.01.049 0 .097.01t.094.028q.045.02.086.047.041.027.076.062.035.035.062.076.028.04.046.086.02.045.029.094.01.048.01.097zm6.416 0q0 .05-.01.098-.009.048-.028.094-.019.045-.046.086-.027.041-.062.076-.035.035-.076.062-.041.027-.086.046-.046.02-.094.029-.049.01-.098.01-.05 0-.097-.01-.049-.01-.094-.029-.046-.019-.087-.046-.04-.027-.075-.062-.035-.035-.063-.076-.027-.04-.046-.086-.019-.046-.028-.094-.01-.048-.01-.098 0-.049.01-.097.01-.049.028-.094.02-.045.046-.086.028-.041.063-.076.034-.035.075-.062.041-.028.087-.047.045-.018.094-.028.048-.01.097-.01.05 0 .098.01t.094.028q.045.02.086.047.04.027.076.062.035.035.062.076.027.04.046.086.019.045.029.094.01.048.01.097zm-6.916 2.417H10.5q.05 0 .097.01.049.01.094.028.046.019.087.046.04.028.075.062.035.035.063.076.027.041.046.087.019.045.028.093.01.049.01.098 0 .05-.01.098t-.028.093q-.02.046-.046.087-.028.04-.063.076-.034.034-.075.062-.041.027-.087.046-.045.019-.094.028-.048.01-.097.01H6.417q-.05 0-.098-.01t-.094-.028q-.045-.019-.086-.046-.041-.028-.076-.062-.035-.035-.062-.076-.028-.041-.046-.087-.02-.045-.029-.093-.01-.049-.01-.098 0-.05.01-.098t.029-.093q.018-.046.046-.087.027-.04.062-.076.035-.034.076-.062.04-.027.086-.046.046-.019.094-.028.048-.01.098-.01zm.5.5q0 .05-.01.098t-.029.093q-.018.046-.046.087-.027.04-.062.076-.035.034-.076.062-.04.027-.086.046-.046.019-.094.028-.048.01-.097.01-.05 0-.098-.01t-.094-.028q-.045-.019-.086-.046-.041-.028-.076-.062-.035-.035-.062-.076-.028-.041-.046-.087-.02-.045-.029-.093-.01-.049-.01-.098 0-.05.01-.098t.029-.093q.018-.046.046-.087.027-.04.062-.076.035-.034.076-.062.04-.027.086-.046.046-.019.094-.028.048-.01.098-.01.049 0 .097.01t.094.028q.045.019.086.046.041.028.076.062.035.035.062.076.028.041.046.087.02.045.029.093.01.049.01.098zm4.083 0q0 .05-.01.098t-.028.093q-.02.046-.046.087-.028.04-.063.076-.034.034-.075.062-.041.027-.087.046-.045.019-.094.028-.048.01-.097.01-.05 0-.098-.01t-.094-.028q-.045-.019-.086-.046-.04-.028-.076-.062-.035-.035-.062-.076-.027-.041-.046-.087-.019-.045-.029-.093-.01-.049-.01-.098 0-.05.01-.098t.029-.093q.019-.046.046-.087.027-.04.062-.076.035-.034.076-.062.041-.027.086-.046.046-.019.094-.028.049-.01.098-.01.05 0 .097.01.049.01.094.028.046.019.087.046.04.028.075.062.035.035.063.076.027.041.046.087.019.045.028.093.01.049.01.098z"/></g></svg>