<svg xmlns="http://www.w3.org/2000/svg" fill="none" width="18" height="14"><g style="mix-blend-mode:passthrough" fill="currentColor" fill-opacity=".9"><path d="M.397 4.665l8.32 3.522a.737.737 0 0 0 .567 0l8.319-3.522A.622.622 0 0 0 18 4.089a.623.623 0 0 0-.403-.572L9.28.055a.74.74 0 0 0-.559 0L.403 3.517A.623.623 0 0 0 0 4.089c-.002.25.151.47.397.576zM9.001.83l7.84 3.261-7.84 3.32-7.84-3.32L9 .831z"/><path d="M17.6 9.273l-4.04-1.681a.991.991 0 0 0-.76.001L9.003 9.201 5.205 7.593a.984.984 0 0 0-.76-.001L.404 9.273A.623.623 0 0 0 0 9.845a.622.622 0 0 0 .397.576l8.32 3.522a.737.737 0 0 0 .567 0l8.319-3.522A.622.622 0 0 0 18 9.845a.62.62 0 0 0-.4-.572z"/></g></svg>