<svg xmlns="http://www.w3.org/2000/svg" fill="none" width="18" height="16"><g style="mix-blend-mode:passthrough" fill="currentColor"><path d="M17.266 10.88l-7.96 4.585a.66.66 0 0 1-.6 0L.748 10.88c-.36-.218-.352-.567.018-.779l1.482-.853h.002l6.458 3.72a.66.66 0 0 0 .6 0l6.458-3.72h.002l1.482.853c.368.214.376.563.016.78z" fill-opacity=".9"/><path d="M9.007 16c-.19 0-.38-.044-.533-.134L.514 11.28c-.324-.197-.502-.483-.498-.793.004-.313.192-.6.516-.786l1.589-.917h.252l.111.062 6.458 3.72a.233.233 0 0 0 .134-.002l6.563-3.78h.253l.11.062 1.482.853c.324.187.512.471.516.786.004.31-.174.598-.487.789l-.01.006-7.96 4.585a1.1 1.1 0 0 1-.536.134zm-7.996-5.502l7.931 4.569a.233.233 0 0 0 .134-.002l7.927-4.567-1.237-.714-6.223 3.586c-.31.178-.76.178-1.07 0L2.249 9.782l-1.237.716z" fill-opacity=".9"/><path d="M9.007 13.502c-.19 0-.38-.044-.535-.134L.232 8.623a.462.462 0 0 1-.17-.633.47.47 0 0 1 .64-.169l8.238 4.746a.233.233 0 0 0 .134-.002l6.567-3.78 1.672-.962.469.802-.89.512c-.505.29-.756.435-.895.507L16 9.65l-6.458 3.718a1.1 1.1 0 0 1-.536.134z" fill-opacity=".9"/><path d="M9.007 11.004c-.19 0-.38-.044-.534-.134L.532 6.297C.204 6.11.016 5.818.016 5.502c0-.317.188-.607.516-.795L8.472.134c.309-.179.76-.179 1.069 0l7.94 4.573c.327.188.515.478.515.795 0 .316-.188.607-.516.795L9.54 10.87c-.153.09-.343.134-.533.134zM1.011 5.502l7.931 4.569a.233.233 0 0 0 .134-.002l7.93-4.567L9.071.935a.233.233 0 0 0-.134.002L1.011 5.502z"/></g></svg>