<svg xmlns="http://www.w3.org/2000/svg" width="14" height="14">
  <g>
    <path
      d="M1.96 12.048v.27q0-.119-.084-.2-.078-.076-.186-.076h10.62q-.27 0-.27.275v-.267l.001-.033q.02-.305-.18-.64-.191-.32-.56-.555-.486-.308-1.258-.446l.088-.492-.064.495q-.453-.058-.935-.181-1.078-.275-1.196-.73.01.034.025.063-.036-.068-.05-.143-.039-.195 0-.62Q8 7.77 8.916 6.763q.2-.22.264-.311.277-.389.296-.826l.5.02h-.5q0-.024-.002-.029.001.005.003.007l-.034-.037-.01-.01.369-.338-.359.348-.053-.056V5.53q-.163-.19-.12-.472.043-.278.055-.494.034-.622-.04-1.04l-.004-.023q-.009-.073-.036-.173-.09-.333-.282-.555l.379-.327-.368.339q-.133-.145-.516-.328-.824-.395-2.084-.489-.292-.021-.821.006-.116.005-.156.016.048-.013.067-.11.004-.02 0-.038.001.005.016.038.086.191.023.4-.02.068-.059.128-.099.153-.311.328-.393.335-.413.735-.001.03-.007.06-.127.736.02 1.506.045.228-.04.406-.043.09-.117.156-.051.046-.051.058l-.5.001.499-.026q.022.437.295.82.065.09.264.31l-.37.336.354-.353.017.018q.914 1.007 1.005 2.003.038.426 0 .621-.014.075-.05.143.015-.03.024-.062-.126.455-1.191.728-.452.115-.94.183l-.072-.495.083.493q-.75.127-1.234.431-.367.233-.561.557-.205.343-.19.656l.002.026zm-1 0h.5l-.5.026q-.032-.617.33-1.222.316-.529.885-.888.653-.412 1.602-.572l.011-.002h.007q.432-.06.829-.162.406-.104.567-.201v.004q-.064.069-.095.184.021-.083.063-.16l.44.238-.491-.095q.01-.056-.015-.34-.06-.663-.75-1.422l.37-.336-.353.353q-.01-.009-.017-.018-.239-.263-.338-.402-.442-.62-.48-1.348V5.66q-.001-.46.383-.805l.334.373-.45-.216q-.06.122-.042.213-.18-.949-.022-1.863l.493.085-.5-.024q.041-.833.776-1.457.092-.076.107-.1l.42.272-.48-.144q-.043.147.023.294-.14-.314-.084-.6.103-.52.663-.665.14-.036.356-.047.591-.03.946-.004 1.448.108 2.442.584.556.267.82.553l.01.012q.34.395.49.945.045.168.063.309l-.496.063.493-.087q.094.532.053 1.269-.014.264-.064.59.026-.171-.11-.33l-.001-.001.012.012.01.011-.368.338.359-.348q.194.2.265.42.05.153.05.336l-.001.021q-.031.734-.48 1.364-.1.14-.339.403-.689.76-.75 1.422-.025.284-.014.34l-.491.095.44-.238q.04.076.064.162-.03-.114-.097-.186v-.004q.163.098.571.202.423.108.816.159l.025.003q.965.174 1.616.587.57.361.884.887.36.602.319 1.217l-.499-.032h.5v.267q0 .305-.22.518-.212.207-.51.207H1.69q-.298 0-.511-.207-.22-.213-.22-.518v-.269z"
      fill="currentColor" />
  </g>
</svg>