<svg xmlns="http://www.w3.org/2000/svg" fill="none" width="15" height="15"><defs><clipPath id="a"><rect width="15" height="15" rx="0"/></clipPath></defs><g clip-path="url(#a)"><path d="M2.064 13.983v.316q0-.102-.073-.172-.066-.065-.156-.065H14.29q-.23 0-.23.238v-.315l.002-.032q.025-.384-.224-.8-.234-.395-.685-.68-.584-.37-1.507-.536l.089-.492-.064.496q-.526-.068-1.087-.211-1.214-.31-1.34-.795.008.03.022.055-.037-.068-.051-.143-.042-.217.002-.704.069-.757.46-1.408.219-.365.697-.892.237-.261.316-.372.34-.477.363-1.016l.5.021h-.5q0-.043-.007-.06-.005-.017-.056-.07l-.01-.01.368-.338-.358.348-.059-.062v-.001q-.165-.192-.12-.485.05-.33.064-.587.041-.74-.048-1.24l-.003-.023q-.012-.09-.045-.214-.112-.41-.349-.685l.38-.326-.37.338q-.166-.182-.63-.404-.982-.47-2.476-.582-.348-.025-.974.007-.144.007-.2.021.004 0 .016-.061v-.008q.004.013.025.06.087.194.022.41-.02.067-.058.127-.11.168-.348.365-.49.417-.515.924-.002.03-.007.06-.152.878.023 1.798.048.239-.04.422-.043.09-.117.156-.089.08-.089.133h-.5l.5-.025q.027.537.362 1.007.08.11.316.372l-.37.336.354-.353.016.017q.478.527.698.892.39.651.46 1.408.044.487.001.704-.014.075-.05.143.013-.026.02-.054-.133.485-1.334.792-.525.135-1.094.213l-.072-.495.083.493q-.898.152-1.478.519-.449.283-.687.68-.254.426-.234.82v.025zm-1 0h.5l-.5.027q-.036-.698.375-1.385.36-.602 1.01-1.013.751-.474 1.847-.659l.012-.002h.007q.512-.071.981-.191.49-.126.69-.246l.018-.01q-.06.065-.092.179.023-.088.067-.169l.44.238-.491-.095q.015-.078-.017-.424-.048-.528-.32-.983-.17-.281-.581-.735l.37-.336-.354.353-.016-.017q-.277-.305-.39-.464-.504-.707-.547-1.536V6.49q-.001-.5.42-.879l.334.373-.45-.216q-.057.118-.041.196-.21-1.097-.026-2.154l.492.085-.499-.024q.03-.598.446-1.171.205-.283.432-.475.119-.098.143-.137l.42.272-.478-.144q-.043.141.021.285-.153-.344-.092-.653.11-.556.715-.713.155-.04.4-.052.688-.035 1.098-.005 1.682.126 2.834.677.637.305.935.63.006.005.011.012.385.447.555 1.074.052.19.073.35l-.496.064.492-.088q.109.614.062 1.47-.017.305-.075.683.025-.162-.11-.319l.018.019.01.01-.368.338.359-.348q.214.22.29.458.054.168.054.369v.02q-.036.836-.548 1.554-.113.16-.39.464-.411.454-.58.735-.273.455-.321.983-.032.346-.017.424l-.49.095.44-.238q.043.08.066.17-.029-.112-.092-.18l.02.01q.2.121.692.247.501.128.967.188l.024.004q1.116.2 1.865.675.652.413 1.01 1.012.407.684.361 1.378l-.499-.033h.5v.315q0 .32-.23.544-.225.219-.54.219H1.835q-.315 0-.54-.219-.231-.224-.231-.544v-.317z" fill="currentColor"/></g></svg>