<svg xmlns="http://www.w3.org/2000/svg" fill="none" width="14" height="14"><g style="mix-blend-mode:passthrough" fill="currentColor"><path d="M9.464 8.066Q11.05 6.88 11.05 4.939q0-1.628-1.182-2.781Q8.681 1 7 1 5.32 1 4.132 2.158 2.95 3.311 2.95 4.939q0 1.975 1.63 3.159.04.029.073.065.034.036.06.078.025.042.042.088.017.046.025.095t.006.098q-.002.049-.013.097-.012.048-.033.093-.02.044-.05.084-.028.04-.064.073-.036.034-.078.06-.042.025-.088.042-.047.017-.095.025-.049.008-.098.006-.05-.002-.097-.013-.048-.012-.093-.033-.045-.02-.084-.05-.947-.686-1.485-1.709Q1.95 6.138 1.95 4.94q0-2.05 1.484-3.497Q4.912 0 7 0t3.567 1.442Q12.05 2.89 12.05 4.94q0 1.181-.542 2.229-.523 1.01-1.446 1.7-.04.029-.084.05-.045.021-.092.033-.048.012-.097.015-.05.002-.098-.005-.049-.007-.095-.023-.047-.017-.089-.042-.042-.025-.079-.058t-.066-.072q-.03-.04-.05-.084-.022-.045-.034-.092-.012-.048-.015-.097-.002-.05.005-.098.007-.049.023-.095.017-.047.042-.09.025-.042.058-.078.033-.037.073-.066zm.799.4q0 .05-.01.098t-.028.094q-.02.045-.047.086-.027.041-.062.076-.035.035-.076.062-.04.028-.086.046-.045.02-.094.029-.048.01-.097.01-.05 0-.098-.01t-.094-.029q-.045-.018-.086-.046-.041-.027-.076-.062-.035-.035-.062-.076-.027-.04-.046-.086-.02-.046-.029-.094-.01-.048-.01-.097 0-.05.01-.098t.029-.094q.019-.045.046-.086.027-.041.062-.076.035-.035.076-.062.04-.028.086-.046.046-.02.094-.029.048-.01.098-.01.049 0 .097.01.049.01.094.029.046.018.086.046.041.027.076.062.035.035.062.076.028.04.047.086.018.046.028.094.01.048.01.098zm-5.477.036q0 .05-.01.098-.009.048-.028.094-.019.045-.046.086-.027.041-.062.076-.035.035-.076.062-.04.027-.086.046-.046.02-.094.029-.048.01-.098.01-.049 0-.097-.01-.049-.01-.094-.029-.046-.019-.086-.046-.041-.027-.076-.062-.035-.035-.062-.076-.028-.04-.047-.086-.018-.046-.028-.094-.01-.048-.01-.098 0-.049.01-.097.01-.049.028-.094.02-.046.047-.086.027-.041.062-.076.035-.035.076-.062.04-.028.086-.047.045-.018.094-.028.048-.01.097-.01.05 0 .098.01t.094.028q.045.02.086.047.041.027.076.062.035.035.062.076.027.04.046.086.02.045.029.094.01.048.01.097z"/><path d="M.102 13.198l6.5-8.561q.03-.04.066-.072.037-.033.08-.058.042-.025.089-.04.046-.017.095-.023.049-.007.098-.004.05.003.097.015.048.013.092.034.044.022.083.052.055.041.096.096l6.5 8.56q.03.04.052.084.021.044.034.092.012.048.015.097.003.049-.004.098-.006.049-.022.095-.016.047-.041.09-.025.042-.058.079-.032.036-.072.066-.134.102-.302.102H.5q-.05 0-.098-.01t-.093-.028q-.046-.019-.087-.046-.04-.028-.076-.062-.034-.035-.062-.076-.027-.041-.046-.087-.019-.045-.028-.093Q0 13.549 0 13.5q0-.168.102-.302zm.796.604L.5 13.5V13h13v.5l-.398.302-6.5-8.56L7 4.938l.398.302-6.5 8.561z"/></g></svg>