<svg xmlns="http://www.w3.org/2000/svg" fill="none" width="14" height="14"><g style="mix-blend-mode:passthrough" fill="currentColor"><path d="M0 10.5v-7q0-1.45 1.025-2.475Q2.05 0 3.5 0h7q1.45 0 2.475 1.025Q14 2.05 14 3.5v7q0 1.45-1.025 2.475Q11.95 14 10.5 14h-7q-1.45 0-2.475-1.025Q0 11.95 0 10.5zm1 0q0 1.036.732 1.768T3.5 13h7q1.036 0 1.768-.732T13 10.5v-7q0-1.036-.732-1.768T10.5 1h-7q-1.036 0-1.768.732T1 3.5v7z"/><path d="M9.39 5.194V4.111h.5v.5H4.11v-.5h.5v1.083q0 .05-.01.098-.009.048-.028.094-.019.045-.046.086-.027.041-.062.076-.035.035-.076.062-.04.028-.086.046-.046.02-.094.029-.048.01-.098.01-.049 0-.097-.01-.049-.01-.094-.029-.046-.018-.086-.046-.041-.027-.076-.062-.035-.035-.062-.076-.028-.04-.047-.086-.018-.046-.028-.094-.01-.048-.01-.098V4.111q0-.05.01-.097.01-.049.028-.094.02-.046.047-.087.027-.04.062-.075.035-.035.076-.063.04-.027.086-.046.045-.019.094-.028.048-.01.097-.01h5.78q.05 0 .098.01t.093.028q.046.019.087.046.04.028.076.063.034.034.062.075.027.041.046.087.019.045.028.094.01.048.01.097v1.083q0 .05-.01.098t-.028.094q-.019.045-.046.086-.028.041-.062.076-.035.035-.076.062-.041.028-.087.046-.045.02-.093.029-.049.01-.098.01-.05 0-.097-.01-.049-.01-.094-.029-.046-.018-.087-.046-.04-.027-.075-.062-.035-.035-.063-.076-.027-.04-.046-.086-.019-.046-.028-.094-.01-.048-.01-.098zm1 0q0 .05-.01.098t-.029.094q-.019.045-.046.086-.028.041-.062.076-.035.035-.076.062-.041.028-.087.046-.045.02-.093.029-.049.01-.098.01-.05 0-.097-.01-.049-.01-.094-.029-.046-.018-.087-.046-.04-.027-.075-.062-.035-.035-.063-.076-.027-.04-.046-.086-.019-.046-.028-.094-.01-.048-.01-.098 0-.049.01-.097t.028-.094q.019-.045.046-.086.028-.041.063-.076.034-.035.075-.062.041-.028.087-.047.045-.018.094-.028.048-.01.097-.01.05 0 .098.01t.093.028q.046.02.087.047.04.027.076.062.034.035.062.076.027.04.046.086.019.046.028.094.01.048.01.097zm-5.779 0q0 .05-.01.098-.009.048-.028.094-.019.045-.046.086-.027.041-.062.076-.035.035-.076.062-.04.028-.086.046-.046.02-.094.029-.048.01-.098.01-.049 0-.097-.01-.049-.01-.094-.029-.046-.018-.086-.046-.041-.027-.076-.062-.035-.035-.062-.076-.028-.04-.047-.086-.018-.046-.028-.094-.01-.048-.01-.098 0-.049.01-.097t.028-.094q.02-.045.047-.086.027-.041.062-.076.035-.035.076-.062.04-.028.086-.047.045-.018.094-.028.048-.01.097-.01.05 0 .098.01t.094.028q.045.02.086.047.041.027.076.062.035.035.062.076.027.04.046.086.02.046.029.094.01.048.01.097zm3.111 5.917H6.278q-.05 0-.098-.01t-.094-.028q-.045-.019-.086-.046-.04-.028-.076-.062-.035-.035-.062-.076-.027-.041-.046-.087-.019-.045-.029-.093-.01-.049-.01-.098 0-.05.01-.097.01-.049.029-.094.019-.046.046-.087.027-.04.062-.075.035-.035.076-.063.041-.027.086-.046.046-.019.094-.028.049-.01.098-.01h1.444q.05 0 .098.01t.094.028q.045.019.086.046.041.028.076.063.035.034.062.075.027.041.046.087.02.045.029.094.01.048.01.097 0 .05-.01.098t-.029.093q-.019.046-.046.087-.027.04-.062.076-.035.034-.076.062-.04.027-.086.046-.046.019-.094.028-.048.01-.098.01zm.5-.5q0 .05-.01.098-.009.048-.028.093-.019.046-.046.087-.027.04-.062.076-.035.034-.076.062-.04.027-.086.046-.046.019-.094.028-.048.01-.098.01-.049 0-.097-.01-.049-.01-.094-.028-.046-.019-.087-.046-.04-.028-.075-.062-.035-.035-.062-.076-.028-.041-.047-.087-.019-.045-.028-.093-.01-.049-.01-.098 0-.05.01-.097.01-.049.028-.094.02-.046.047-.087.027-.04.062-.075.035-.035.075-.063.041-.027.087-.046.045-.019.094-.028.048-.01.097-.01.05 0 .098.01t.094.028q.045.019.086.046.041.028.076.063.035.034.062.075.027.041.046.087.02.045.029.094.01.048.01.097zm-1.444 0q0 .05-.01.098t-.028.093q-.02.046-.046.087-.028.04-.063.076-.034.034-.075.062-.041.027-.087.046-.045.019-.094.028-.048.01-.097.01-.05 0-.098-.01t-.094-.028q-.045-.019-.086-.046-.04-.028-.076-.062-.035-.035-.062-.076-.027-.041-.046-.087-.019-.045-.029-.093-.01-.049-.01-.098 0-.05.01-.097.01-.049.029-.094.019-.046.046-.087.027-.04.062-.075.035-.035.076-.063.041-.027.086-.046.046-.019.094-.028.049-.01.098-.01.05 0 .097.01.049.01.094.028.046.019.087.046.04.028.075.063.035.034.063.075.027.041.046.087.019.045.028.094.01.048.01.097z"/><path d="M6.5 10.611V4.833q0-.049.01-.097.01-.049.028-.094.019-.046.046-.086.028-.041.062-.076.035-.035.076-.062.041-.028.087-.047.045-.018.093-.028.049-.01.098-.01.05 0 .098.01t.093.028q.046.02.087.047.04.027.076.062.034.035.062.076.027.04.046.086.019.045.028.094.01.048.01.097v5.778q0 .05-.01.098t-.028.093q-.019.046-.046.087-.028.04-.062.076-.035.034-.076.062-.041.027-.087.046-.045.019-.093.028-.049.01-.098.01-.05 0-.098-.01t-.093-.028q-.046-.019-.087-.046-.04-.028-.076-.062-.034-.035-.062-.076-.027-.041-.046-.087-.019-.045-.028-.093-.01-.049-.01-.098zm1 0q0 .05-.01.098t-.028.093q-.019.046-.046.087-.028.04-.062.076-.035.034-.076.062-.041.027-.087.046-.045.019-.093.028-.049.01-.098.01-.05 0-.098-.01t-.093-.028q-.046-.019-.087-.046-.04-.028-.076-.062-.034-.035-.062-.076-.027-.041-.046-.087-.019-.045-.028-.093-.01-.049-.01-.098 0-.05.01-.097.01-.049.028-.094.019-.046.046-.087.028-.04.062-.075.035-.035.076-.063.041-.027.087-.046.045-.019.093-.028.049-.01.098-.01.05 0 .098.01t.093.028q.046.019.087.046.04.028.076.063.034.034.062.075.027.041.046.087.019.045.028.094.01.048.01.097zm0-5.778q0 .05-.01.098t-.028.094q-.019.045-.046.086-.028.041-.062.076-.035.035-.076.062-.041.027-.087.046-.045.02-.093.029-.049.01-.098.01-.05 0-.098-.01t-.093-.029q-.046-.019-.087-.046-.04-.027-.076-.062-.034-.035-.062-.076-.027-.04-.046-.086-.019-.046-.028-.094-.01-.048-.01-.098 0-.049.01-.097.01-.049.028-.094.019-.046.046-.086.028-.041.062-.076.035-.035.076-.062.041-.028.087-.047.045-.018.093-.028.049-.01.098-.01.05 0 .098.01t.093.028q.046.02.087.047.04.027.076.062.034.035.062.076.027.04.046.086.019.045.028.094.01.048.01.097z"/></g></svg>