<svg xmlns="http://www.w3.org/2000/svg" fill="none" width="14" height="14"><g style="mix-blend-mode:passthrough" fill="currentColor"><path d="M0 10.5v-7q0-1.45 1.025-2.475Q2.05 0 3.5 0h7q1.45 0 2.475 1.025Q14 2.05 14 3.5v7q0 1.45-1.025 2.475Q11.95 14 10.5 14h-7q-1.45 0-2.475-1.025Q0 11.95 0 10.5zm1 0q0 1.036.732 1.768T3.5 13h7q1.036 0 1.768-.732T13 10.5v-7q0-1.036-.732-1.768T10.5 1h-7q-1.036 0-1.768.732T1 3.5v7z"/><path d="M4.514 9.815v-5.63q0-.049.01-.097.009-.048.028-.094.019-.045.046-.086.027-.041.062-.076.035-.035.076-.062.04-.028.086-.047.046-.018.094-.028.048-.01.098-.01.134 0 .25.067L7.7 5.16l2.438 1.407q.042.025.08.057.036.033.066.072.03.039.052.083.022.044.035.092.012.047.016.096.003.05-.004.098-.006.05-.022.096t-.04.089q-.067.116-.183.183L7.7 8.84l-2.437 1.408q-.043.024-.09.04-.046.016-.095.022-.049.007-.098.003-.05-.003-.097-.015-.047-.013-.091-.035-.045-.022-.084-.052-.039-.03-.071-.067-.033-.037-.057-.08-.067-.115-.067-.25zm1 0h-.5l-.25-.433L7.2 7.974l2.44-1.407.25.433-.25.433L7.2 6.026 4.764 4.618l.25-.433h.5v5.63z"/></g></svg>